<svg xmlns="http://www.w3.org/2000/svg" width="64" height="64" viewBox="0 0 64 64" role="img" aria-labelledby="title">
  <title>Tabular ML icon</title>
  <defs>
    <linearGradient id="grad" x1="0%" y1="0%" x2="100%" y2="100%">
      <stop offset="0%" stop-color="#63d5ff" stop-opacity="0.95" />
      <stop offset="100%" stop-color="#8c7bff" stop-opacity="0.95" />
    </linearGradient>
  </defs>
  <rect x="4" y="4" width="56" height="56" rx="12" fill="url(#grad)" opacity="0.92" />
  <g stroke="#0b1020" stroke-width="2" fill="none" stroke-linecap="round" stroke-linejoin="round">
    <path d="M18 44 L28 32 L36 38 L46 22" />
    <circle cx="18" cy="44" r="2.8" fill="#0b1020" />
    <circle cx="28" cy="32" r="2.8" fill="#0b1020" />
    <circle cx="36" cy="38" r="2.8" fill="#0b1020" />
    <circle cx="46" cy="22" r="2.8" fill="#0b1020" />
  </g>
  <g fill="#0b1020">
    <rect x="16" y="18" width="6" height="4" rx="1" />
    <rect x="26" y="18" width="6" height="4" rx="1" />
    <rect x="36" y="18" width="6" height="4" rx="1" />
    <rect x="16" y="48" width="6" height="4" rx="1" />
    <rect x="26" y="48" width="6" height="4" rx="1" />
    <rect x="36" y="48" width="6" height="4" rx="1" />
  </g>
</svg>
